<?xml version="1.0" standalone="no"?>
<!DOCTYPE svg PUBLIC "-//W3C//DTD SVG 20010904//EN"
 "http://www.w3.org/TR/2001/REC-SVG-20010904/DTD/svg10.dtd">
<svg version="1.0" xmlns="http://www.w3.org/2000/svg"
 width="291.000000pt" height="291.000000pt" viewBox="0 0 291.000000 291.000000"
 preserveAspectRatio="xMidYMid meet">
<metadata>
Created by potrace 1.14, written by Peter Selinger 2001-2017
</metadata>
<g transform="translate(0.000000,291.000000) scale(0.100000,-0.100000)"
fill="#000000" stroke="none">
<path d="M261 2854 c-6 -15 -6 -25 2 -34 9 -10 9 -14 0 -17 -9 -3 -10 -10 -3
-23 7 -13 7 -21 0 -25 -7 -4 -7 -12 0 -25 13 -25 13 -33 -2 -24 -7 5 -8 3 -3
-6 11 -17 13 -140 2 -140 -4 0 -5 -5 -1 -12 10 -15 12 -219 2 -239 -4 -9 -4
-19 -1 -23 10 -10 10 -106 0 -106 -4 0 -5 -6 0 -12 10 -17 11 -148 0 -148 -4
0 -5 -6 0 -12 11 -18 12 -108 1 -108 -5 0 -6 -6 -1 -12 11 -19 11 -248 -1
-241 -5 4 -6 1 0 -8 5 -8 9 -151 10 -319 1 -316 3 -334 51 -450 4 -8 7 -17 8
-20 0 -3 11 -27 24 -55 13 -27 23 -53 23 -58 -1 -4 2 -7 8 -7 5 0 10 -6 10
-14 0 -8 7 -22 16 -30 8 -9 12 -16 8 -16 -4 0 1 -7 12 -15 10 -8 16 -15 12
-15 -4 0 8 -17 27 -37 19 -20 31 -41 28 -47 -3 -5 -2 -7 3 -5 12 6 103 -88 95
-97 -3 -4 -1 -4 5 -1 6 4 19 -2 29 -13 43 -47 283 -188 335 -196 8 -2 20 -10
26 -18 6 -9 13 -13 17 -10 3 3 13 1 24 -4 28 -15 115 -50 140 -57 13 -4 23
-10 23 -15 0 -5 7 -6 17 -3 11 4 14 3 9 -6 -5 -8 -3 -11 5 -9 17 3 79 -24 79
-35 0 -5 4 -6 9 -3 8 6 69 -21 81 -35 3 -3 19 -12 37 -19 17 -8 30 -17 28 -20
-2 -4 4 -7 13 -7 21 -1 79 24 87 37 4 6 11 8 16 5 5 -4 9 -1 9 5 0 6 5 8 10 5
6 -3 10 -2 10 4 0 5 14 12 30 16 17 4 30 10 30 14 0 6 46 27 60 27 3 1 16 7
30 14 14 8 28 13 33 12 4 -1 7 2 7 8 0 6 3 9 8 8 4 -1 21 5 37 12 17 7 37 14
45 16 8 2 16 8 18 14 2 5 8 8 13 4 5 -3 9 -1 9 5 0 5 9 8 20 6 11 -2 20 0 20
5 0 5 16 14 35 20 19 6 35 16 35 22 0 6 3 8 6 5 6 -6 38 8 84 35 8 5 23 11 33
14 9 4 17 10 17 15 0 5 7 9 15 9 8 0 15 5 15 12 0 6 3 8 6 5 4 -4 24 7 44 23
20 16 41 26 45 22 5 -4 5 -1 1 6 -4 6 -3 12 2 12 6 0 27 17 48 38 21 20 34 30
29 22 -4 -8 3 -4 16 10 14 14 24 26 23 28 -1 2 14 21 35 42 50 54 61 68 61 78
0 5 7 15 15 22 9 7 13 15 11 17 -3 3 4 14 15 26 10 11 19 29 19 39 0 10 4 18
9 18 8 0 21 29 25 55 1 6 7 20 14 31 6 12 8 24 5 28 -3 3 -1 6 6 6 8 0 11 7 7
15 -3 8 -2 15 3 15 4 0 8 6 9 13 0 6 4 28 9 47 4 19 8 455 8 969 l0 935 -1197
1 -1197 1 -10 -22z m2234 -997 c-2 -463 -4 -843 -5 -844 -1 -2 -3 -11 -4 -20
-1 -10 -5 -24 -10 -32 -6 -10 -5 -12 3 -7 8 5 9 1 2 -16 -12 -30 -23 -62 -21
-66 1 -4 -73 -145 -85 -160 -26 -33 -125 -134 -125 -128 0 4 -10 -2 -22 -14
-12 -11 -34 -26 -50 -32 -15 -7 -28 -16 -28 -20 0 -5 -7 -8 -15 -8 -8 0 -15
-5 -15 -12 0 -6 -3 -8 -6 -5 -4 4 -21 -4 -38 -16 -17 -12 -32 -21 -34 -19 -1
2 -27 -8 -57 -22 -30 -15 -67 -31 -82 -38 -15 -6 -30 -12 -33 -14 -3 -1 -15
-5 -27 -9 -13 -4 -23 -12 -23 -17 0 -5 -4 -7 -9 -3 -5 3 -12 1 -16 -5 -4 -6
-11 -8 -16 -5 -5 4 -9 1 -9 -5 0 -7 -7 -9 -16 -6 -8 3 -13 2 -10 -3 3 -5 -1
-12 -10 -15 -10 -4 -13 -2 -7 6 4 7 -6 3 -21 -10 -16 -12 -32 -19 -37 -16 -5
3 -9 1 -9 -4 0 -4 -16 -14 -35 -22 -19 -8 -35 -18 -35 -22 0 -5 -4 -6 -10 -3
-5 3 -10 2 -10 -2 0 -5 -9 -14 -21 -21 -17 -11 -20 -11 -14 0 3 7 0 5 -8 -4
-8 -10 -19 -18 -26 -18 -6 0 -11 -5 -11 -11 0 -8 -5 -8 -15 1 -8 7 -15 9 -15
5 0 -4 -9 3 -21 16 -11 13 -18 18 -14 12 4 -9 1 -11 -9 -7 -9 3 -16 10 -16 15
0 5 -3 9 -7 8 -16 -2 -53 14 -53 23 0 5 -4 6 -10 3 -5 -3 -10 -1 -10 4 0 6 -9
11 -20 11 -11 0 -20 4 -20 10 0 5 -7 7 -15 4 -8 -4 -15 -1 -15 5 0 6 -9 11
-21 11 -11 0 -17 4 -14 10 3 6 -1 7 -9 4 -9 -3 -16 -1 -16 6 0 6 -4 9 -9 5 -5
-3 -12 -1 -16 5 -4 6 -10 8 -15 5 -4 -3 -13 2 -20 10 -6 7 -18 11 -26 8 -8 -3
-14 -1 -14 5 0 5 -13 12 -29 15 -16 3 -35 12 -43 19 -7 7 -20 14 -28 16 -20 5
-164 78 -213 109 -45 28 -58 38 -92 69 -13 12 -30 24 -39 27 -9 4 -16 14 -16
23 0 10 -3 14 -7 11 -8 -9 -105 122 -98 133 3 5 1 10 -4 12 -5 1 -11 10 -13
18 -2 8 -7 18 -11 21 -5 3 -10 15 -12 25 -2 10 -4 19 -5 19 -3 0 -12 39 -13
58 -1 9 -4 17 -7 17 -10 0 -13 69 -14 323 -1 152 3 237 9 237 7 0 7 3 0 8 -13
9 -14 852 -1 845 5 -4 6 0 1 7 -6 10 -10 176 -6 290 l1 26 1024 1 1023 1 -2
-841z"/>
<path d="M1069 2593 c-8 -28 -14 -92 -14 -153 1 -117 15 -158 74 -214 17 -17
31 -32 31 -35 0 -3 -19 -15 -43 -26 -223 -106 -382 -262 -415 -412 l-9 -41 57
47 c60 48 146 96 202 112 l33 9 -37 -33 c-76 -67 -147 -210 -183 -367 -22 -97
-15 -275 15 -365 l22 -70 38 110 c38 110 94 220 115 229 8 3 11 -33 12 -118 0
-89 6 -143 22 -205 23 -93 73 -197 91 -193 6 1 9 -2 5 -8 -3 -5 13 -30 36 -55
43 -47 154 -108 219 -121 l35 -6 -22 23 c-63 70 -104 194 -105 315 -1 77 7 90
21 38 15 -57 91 -174 144 -224 81 -74 170 -111 270 -112 93 -1 118 2 112 12
-3 6 1 7 9 4 9 -3 41 2 73 12 l57 18 -45 11 c-24 7 -59 19 -77 29 -18 9 -38
14 -44 10 -7 -4 -8 -3 -4 4 4 7 3 12 -2 12 -20 0 -112 101 -139 152 -15 29
-26 56 -25 61 1 4 -1 7 -6 7 -7 0 -10 29 -12 124 -1 65 21 142 51 180 11 14
17 26 13 26 -4 0 10 14 31 30 21 17 42 30 46 30 5 0 9 4 9 9 0 4 -31 12 -70
15 -84 9 -98 20 -27 23 29 1 61 3 72 3 20 2 63 -4 120 -16 99 -20 161 -58 183
-116 18 -45 21 -44 122 8 67 35 117 92 106 120 -3 8 -2 12 4 9 10 -6 8 29 -4
60 -15 40 -36 70 -46 67 -7 -1 -9 2 -6 7 7 11 -79 101 -122 129 -15 9 -37 25
-49 36 l-22 19 22 17 21 18 -28 41 c-57 82 -222 231 -255 231 -6 0 -11 4 -11
9 0 5 -8 11 -17 14 -37 11 -251 114 -338 161 -171 93 -223 144 -267 263 -12
32 -24 62 -28 66 -4 4 -13 -14 -21 -40z m686 -634 c22 -20 58 -53 80 -73 33
-30 37 -38 25 -46 -21 -14 -76 -12 -88 3 -19 22 -81 168 -69 160 7 -4 30 -24
52 -44z"/>
</g>
</svg>
